<?xml version="1.0" encoding="utf-8"?>
<!-- Svg Vector Icons : http://www.onlinewebfonts.com/icon -->
<!DOCTYPE svg PUBLIC "-//W3C//DTD SVG 1.1//EN" "http://www.w3.org/Graphics/SVG/1.1/DTD/svg11.dtd">
<svg version="1.1" xmlns="http://www.w3.org/2000/svg" xmlns:xlink="http://www.w3.org/1999/xlink" x="0px" y="0px" viewBox="0 0 256 256" enable-background="new 0 0 256 256" xml:space="preserve">
<metadata> Svg Vector Icons : http://www.onlinewebfonts.com/icon </metadata>
<g><g><path fill="#000000" d="M235.3,148.3c-2.3-9.1-7.8-15.8-16.1-20.2c-3.2-1.7-6.5-3.1-9.7-4.7c-1.5-0.7-2.9-1.7-4.4-2.6c-0.3-0.2-0.6-0.5-1-0.9c7-1,13.2-3.5,18.7-7.7c-0.4,0.2-0.7,0.3-1.1,0.5c-4.5,2.2-9.1,4.3-14.1,5.1c-1.2,0.2-2.5,0.2-3.8,0.4c-1.1,0.1-1.7-0.4-2.1-1.4c-1.6-3.6-1.3-7.3-0.3-10.9c0.4-1.4,1-2.8,1.5-4.2c7-17.6,1.1-34.9-15.2-44.7c-4-2.4-8.2-4.3-12.7-5.7c-4.9-1.5-9-4.3-12.2-8.4c-2.6-3.2-5-6.6-7.4-10.1c-8.6-12.4-20.4-19.7-35.2-22.1c-2-0.3-4.1-0.6-6.2-0.8c-3,0-6,0-9,0c-0.3,0.1-0.6,0.2-0.9,0.2c-8.6,0.6-16.8,2.5-24.7,5.7c-8.9,3.5-17,8.3-23.6,15.2c-3.8,4-6.6,8.5-7.8,13.9c-0.6,3-0.6,5.9,0.2,9.1c0.5-1.4,0.8-2.7,1.2-3.8c3.5-9.8,10.4-16.6,19.6-21.2c8.9-4.5,18.5-6.4,28.4-6.6c7.1-0.1,14.1,0.8,20.9,3.1c7.5,2.6,13.8,7.1,19.4,12.6c4.6,4.4,9.1,8.8,13.6,13.3c0,0,0,0.1,0,0.1c-2.7-1.3-5.4-2.6-8.2-3.8c-6.8-2.8-13.3-6.2-19.3-10.5c-10.2-7.2-21.5-10.4-34-9.7c-6.8,0.4-13.4,2-20,3.6c-3.6,0.9-6.4,3-9.6,4.7c0.3,0.6,0.6,1.2,0.8,1.7c2,3.5,5,6.2,8.4,8.3c9,5.5,19,8.1,29.3,9.2c6.5,0.7,13.2,0.9,19.7,1.5c8.7,0.8,17.2,2.4,25.4,5.4c5.4,2,10.5,4.6,14.6,8.9c0.9,0.9,1.6,2,2.5,3c-1.9-0.8-3.6-1.7-5.4-2.5c-8.1-3.5-16.7-5.2-25.3-6.6c-6.8-1.1-13.6-2-20.4-3.1c-6.4-1.1-12.6-2.5-19-3.6c-5.4-1-10.8-1.8-16-3.6C67.6,52,62,47.5,59.2,39.8c0-0.1-0.2-0.2-0.3-0.4c-1.1,1.5-2,2.9-3.1,4.3c-0.9,1.1-1.1,2.3-1,3.7c0.6,5.7,3.5,10.1,7.6,13.8c4.5,4.1,9.7,7,15.2,9.3c8.8,3.6,17.9,6,27.4,6.1c4.3,0,8.6,0.1,13,0.3c7,0.3,14,0.9,20.7,2.8c12.4,3.5,21.1,10.9,25,23.4c1.4,4.6,2.3,9.3,3.4,14c0.8,3.6,1.2,7.3,2.9,10.6c2.9,5.6,7.3,9.7,12.7,12.8c1.4,0.8,2.8,1.5,4.4,2.4c-5.3-1.1-9.6-3.3-13.1-7.1c-3.8-4-6.2-8.9-8-14c-1.8-5.2-3.3-10.5-5.3-15.6c-4.6-11.9-12.9-19.9-25.7-22.6c-6.4-1.4-12.9-1.8-19.4-2.2c-6.5-0.5-13.1-0.7-19.6-1.7C77.3,76.6,62.8,67,52.5,51c-0.1-0.2-0.3-0.4-0.6-0.8c0.1,0.6,0.1,0.9,0.2,1.2c1,4.6,3.3,8.5,6.4,11.9c7.4,8.1,16.4,13.6,26.9,16.6c8.8,2.5,17.8,3.3,26.9,3.8c7.1,0.4,14.3,0.8,21.3,2.1c10.9,2,19.2,7.6,24.6,17.4c0.1,0.3,0.3,0.6,0.4,0.9c-0.3-0.1-0.4-0.2-0.5-0.4c-5.1-7.2-11.8-12.1-20.4-14.3c-7.8-2-15.8-2.2-23.8-2.3C108,87,102.1,87.2,96.2,87c-4.3-0.1-8.7-0.8-12.5-2.9c-5.3-3-10.5-6-15.5-9.4c-7.8-5.4-13.9-12.5-17.4-21.5c0-0.1-0.1-0.2-0.4-0.6c-0.1,2.3-0.5,4.3-0.2,6.2c0.6,5,2.9,9.3,5.9,13.3c5.3,7,12.2,11.9,19.8,16c0.6,0.3,1.3,0.6,1.8,1.1c4.4,3.9,9.6,6.6,14.8,9.2c1,0.5,2.1,1.1,2.8,1.9c2,2.1,4.2,4.2,5.8,6.6c5.9,9.1,8,19.2,6.2,30c-0.7,4.6-1.2,9.4-0.6,14.1c0.7,5.8,3.2,10.5,8.4,13.4c0.8,0.4,1,0.8,0.9,1.7c-0.6,6.7,0.8,12.8,5.6,17.7c5.4,5.5,12.1,8.4,19.8,8.4c10.1,0,16.4-6.2,16.3-16c0-4.5-5-9.1-9.5-8.9c-2.4,0.1-3.9,2-3.4,4.3c0.1-0.2,0.2-0.5,0.3-0.6c0.4-0.8,0.9-1.8,2-1.7c1.1,0,1.7,1,2,1.9c0.7,1.8,0.8,3.7,0,5.5c-2,4.7-5.9,6.9-10.7,7.6c-4.8,0.7-8.1-1.7-10.4-5.6c-2.2-3.5-2.7-7.5-2.7-11.6c0-1,0.2-1.4,1.3-1.7c2.7-0.7,5.2-2,7.4-3.7c-2.7,1.2-5.4,2.2-8.7,2.3c0.7-3.4,1.1-6.7,2-9.8c1.6-5.8,3.6-11.6,5.3-17.5c3.4-11.7,1.4-22.1-7.5-30.9c-0.7-0.7-1.5-1.4-2.2-2.1c0.4-0.1,0.6,0,0.9,0.1c2.8,1.3,5.6,2.7,8.4,4.1c0.5,0.2,0.9,0.9,1,1.4c0.7,3.4,1.3,6.8,2,10.2c2,9.4,4.8,18.6,9.4,27.2c4.1,7.6,8.9,14.5,16.3,19.2c3.9,2.5,8,4.9,12.1,7.1c5.6,3,11.4,5.6,16.9,8.6c6,3.2,8.9,9.6,7.9,16.3c-1,6.5-4.1,11.9-9,16.2c-7.5,6.8-15.3,13.3-23,20c-0.7,0.6-0.8,1.2-0.6,2c1.1,4.1,3.7,7,7.6,8.6c1.5,0.6,3.2,1,4.8,1.5c1.7,0,3.3,0,5,0c2.5-0.7,5.1-1.4,7.6-2.1c0.8-0.2,1.5-0.7,2.4-1.1c-1-0.4-1.8-0.7-2.6-1c-4.6-1.9-6.1-5.2-4.5-10c1.4-4,4-7.3,6.6-10.5c2.6-3.3,5.3-6.6,7.9-10c1.1-1.5,1.9-3.2,2.7-4.8c0.4-0.7,0.8-1,1.6-1c8.2,0.1,15.1-2.8,20.4-9.2c2.8-3.4,3.8-7.5,4.5-11.6c0.4-2.6,0.2-5.4,0.4-8.1c0-0.4,0.1-0.8,0.3-1.1c3.6-4.4,5.6-9.5,6.2-15.1c0-0.3,0.1-0.5,0.2-0.8c0-1.9,0-3.8,0-5.7C236,152,235.7,150.2,235.3,148.3z M123.8,126.5c0.1,4.8-0.5,9.4-1.7,14c-1.9,7.3-3.9,14.5-5.9,21.9c-1.9-0.7-3.4-2.2-4.5-4.2c-1.3-2.7-1.9-5.5-2.4-8.5c-0.8-5.2-0.3-10.4,0.6-15.6c1-6.5,1.1-12.9-0.7-19.3c-1.3-4.4-3.5-8.1-6.7-11.4c-0.3-0.3-0.6-0.6-0.8-0.8c0,0,0-0.1-0.2-0.3c5.4,2.6,10.6,5.1,15.1,8.9C121.3,115.3,123.7,120.3,123.8,126.5z M159.1,57.4c-0.2-0.2-0.4-0.4-0.5-0.7c2.6,1.4,5.3,2.5,7.7,4.1c8.6,6,15,13.8,19.2,23.5c1.2,2.7,1.7,5.5,1.6,8.5c-0.2,6-0.4,12-0.6,18.3c-2.5-2.3-4.3-4.9-5.1-8c-1-3.8-1.8-7.6-2.4-11.5c-0.9-5.7-1.8-11.4-5.1-16.3C169.7,68.7,164.9,62.6,159.1,57.4z M138,114.8c-0.2-1.1-0.3-2.2-0.6-3.5c0.6,0.5,0.9,0.7,1.3,1c6.1,5.2,10,11.9,12.7,19.4c2.9,7.7,6.6,14.9,12.4,20.9c1.6,1.7,3.4,3.1,4.9,4.5C152.7,147.4,141,134.3,138,114.8z M167.3,131.1c-1.8-5.3-3.2-10.7-4.8-16.1c0.1,0,0.2-0.1,0.4-0.2c1.1,3.1,2,6.2,3.2,9.2c1,2.7,2.2,5.3,3.5,7.8c3.9,7.3,9.8,12,18,13.8c4.9,1.1,9.8,2.3,14.6,3.8c3.8,1.2,7.2,3.2,10.3,6.2c-2.4-0.5-4.6-1.1-6.7-1.5c-4.4-0.7-8.9-1.2-13.3-2.1C180.2,149.7,171.4,143.1,167.3,131.1z M211.2,151.7c2,1.4,3.4,3.1,4.5,5.2C214.2,155.2,212.7,153.5,211.2,151.7z M203.9,203.8c0.1-0.5,0.2-0.9,0.4-1.3c2.9-8.5,1.5-16.6-3-24.2c-1.5-2.6-3.8-4.4-6.4-5.8c-4.8-2.7-9.7-5.2-14.5-7.9c-2.5-1.4-4.9-2.9-7.4-4.4c0.1-0.1,0.1-0.2,0.2-0.3c4.9,2.7,10.1,4.4,15.5,5.6c3.9,0.9,7.8,1.7,11.7,2.7c4.8,1.3,9.3,3.2,12.6,7.2c1.6,1.9,2.8,4,3.6,6.5c0.2,0.7,0.1,1.1-0.6,1.4c-1.8,0.9-3.6,1.8-5.4,2.9c2.1-0.6,4.2-1.2,6.4-1.8C218.8,191.9,212.2,201.7,203.9,203.8z M228.8,170.6c-0.1,0.2-0.3,0.5-0.3,0.5c-1.7-2.6-3.2-5.2-5-7.7c-1-1.4-2.4-2.6-3.6-3.9c-0.3-0.3-0.6-0.7-0.6-1c-0.5-7.1-4.4-12.3-9.9-16.4c-4.8-3.6-10.1-6-15.8-7.8c-3.8-1.2-6.7-3.4-9.1-6.5c-3.7-4.6-6.4-9.9-8.8-15.3c-0.8-1.9-1.5-3.8-2.3-5.6c0.1,0,0.2-0.1,0.3-0.1c0.1,0.1,0.3,0.3,0.4,0.5c3.1,4.5,7.2,7.8,12.2,10.1c0.4,0.2,1,0.6,1.1,1.1c2.1,8.5,7.6,14.2,15,18.1c3.5,1.8,7.4,3,11.2,4.4c2.2,0.8,4.4,1.5,6.5,2.3c6.3,2.6,9.6,7.5,10.8,14C231.7,161.9,230.9,166.4,228.8,170.6z"/><path fill="#000000" d="M30.8,127.7c2.5-0.8,5.1-1.5,7.6-2.4c4.5-1.6,7.1-5,8.3-9.6c0.6-2.6,0.6-5.1,0.1-7.7c-0.9-4.7-2.8-9.1-5.1-13.2c-3.9-7.1-4.3-14.5-2.2-22.1c1.4-5,3.7-9.7,6-14.3c0.4-0.8,0.7-1.7,1.1-2.6c-0.3,0-0.4,0-0.5,0.2c-3.4,4.6-6.5,9.4-8.6,14.8c-2,5.2-2.8,10.4-1.8,16c0.7,4.2,2.6,8,4.5,11.8c1.3,2.6,2.7,5.3,3.3,8.1c1.5,6.2-0.7,10.8-6.2,13.5c-1.7,0.8-3.4,1.4-5.1,2.1c-2.3,0.9-4.7,1.7-7,2.8c-2.8,1.4-4.6,3.7-5.3,6.8c0,0.2-0.1,0.3-0.2,0.5c0,1.7,0,3.5,0,5.2c0.3,1.5,0.6,3.1,1,4.6c0.2-0.5,0.2-0.9,0.2-1.3c0.1-2.9,0.7-5.7,2.4-8.1C25,130,27.8,128.7,30.8,127.7z"/><path fill="#000000" d="M147.4,205.4c-1.2-1.1-2.5-2.4-3.9-3.2c-16.3-9.4-33.3-11.1-51.1-4.6c-0.9,0.3-1.6,0.3-2.4-0.2c-1.3-1-2.6-2-4-3c-5.2-3.8-10.3-7.7-15.5-11.5c-1.4-1-3.1-1.7-4.7-2.4c-1.1-0.5-2-0.1-2.9,0.9c-5,6-6.6,12.6-4.4,20.1c1,3.4,1.7,7,2.3,10.6c0.3,1.7-0.1,3.5-0.2,5.3c0.8-0.2,1.6-0.4,2.4-0.6c1.7-0.3,3.5-0.9,5.2-0.7c9.7,0.7,19.2,2.3,28.5,5.2c7.9,2.4,15.5,5.6,21.9,10.9c2.7,2.2,5,4.9,7.5,7.4c1.2-1.6,2.6-3.4,3.9-5.2c4.5-5.9,9.2-11.7,13.6-17.6c1.7-2.3,3-4.8,4.5-7.3C149,208,148.6,206.6,147.4,205.4z"/><path fill="#000000" d="M70.1,140.1c4.2,1.3,8.4,2.8,12.5,4.1c0.5,0.2,1.3,0,1.7-0.2c4-2.2,6.7-5.5,8.3-9.7c0.1-0.3,0.3-0.7,0.4-1c0.1,0,0.3,0,0.4,0.1c-0.2,3.9-0.4,7.8-0.6,11.6c3.2-0.3,5.7-1.9,6.6-4.9c1.5-4.5,0.8-9,0.1-13.7c-2.3,1.8-4.4,3.5-6.6,5.1c-3.3,2.4-6.8,4.4-10.9,5.1c-3.1,0.6-5.9-1.6-6-4.7c0-2.2-0.8-3.5-3-4.1c-1.6-0.4-2.2-1.6-2.1-3.2c0-0.4,0.1-0.8,0.1-1.3c-0.2-0.1-0.4-0.2-0.6-0.2c-2.3-0.8-3.1-2.2-2.9-4.6c0-0.5,0.1-0.9,0.1-1.4c0-1-0.3-1.8-1.6-2.1c-1.3-0.3-2.6-1-3.9-1.6c-0.9-0.4-1.2-1.1-1-2.1c0.5-2.4,0.7-4.9,1.3-7.3c1-4.5,0.4-8.7-1.9-12.8c-2.1-3.8-3.8-7.9-5.4-12c-2.6-6.6-5.2-13.3-6.6-20.4c-0.1-0.6-0.2-1.1-0.4-1.9c-2.7,4.8-5.2,9.4-6.9,14.4c-0.7,2.1-1.3,4.2-1.6,6.4c-0.8,6.3,0.3,12.4,2.9,18.1c2.3,4.8,5.1,9.4,7.5,14.2c1.1,2.1,2.1,4.4,2.8,6.7c0.9,3.2-0.3,5.7-3.2,7.2c-1.9,1-4,1.6-6,2.3c-3.1,1-6.2,1.7-9.2,2.8c-7.5,3-11.2,8.9-10.8,16.9c0.2,4.6,1.8,8.9,3.2,13.2c1,3.4,2.1,6.8,2.7,10.2c0.6,4-1.2,6.1-5.2,6.9c-0.9,0.2-1.8,0.3-2.8,0.5c4.6,3.2,13.8,1.8,16.2-5.6c0.8-2.4,1-4.8,0.6-7.2c-0.6-3.4-1.6-6.8-2.3-10.2c-1.1-5.2,0.1-8.2,4.9-10.6c3.4-1.8,7.1-2.9,10.7-4.4c0.3-0.1,0.5-0.1,0.8-0.2c-2.3,1.3-4.6,2.6-6.7,4.1c-6.1,4.4-8.4,10.3-7,17.6c0.6,3.2,1.7,6.2,2.5,9.3c1.4,5.6-0.2,9.5-5.2,12.5c-0.6,0.4-1.3,0.7-1.9,1.1c2.6,0,5.2,0,7.8,0c0.1-1,0.1-1.8,0.2-2.6c0.5-8.6,1-17.3,1.4-25.9c0.2-4.1,1.5-7.7,4.1-10.8c2.2-2.7,5.1-4.3,8.5-4.9C61,137.8,65.6,138.7,70.1,140.1z M68.5,129.6c-0.6,2.5-5,5.3-8.3,5.7C62.9,133.5,65.8,131.5,68.5,129.6z"/></g></g>
</svg>